<?xml version="1.0" encoding="utf-8"?>
<!-- Generator: Adobe Illustrator 16.0.0, SVG Export Plug-In . SVG Version: 6.00 Build 0)  -->
<!DOCTYPE svg PUBLIC "-//W3C//DTD SVG 1.1//EN" "http://www.w3.org/Graphics/SVG/1.1/DTD/svg11.dtd">
<svg version="1.1" id="图层_1" xmlns="http://www.w3.org/2000/svg" xmlns:xlink="http://www.w3.org/1999/xlink" x="0px" y="0px"
	 width="1024px" height="1024px" viewBox="0 0 1024 1024" enable-background="new 0 0 1024 1024" xml:space="preserve">
<linearGradient id="SVGID_1_" gradientUnits="userSpaceOnUse" x1="842.4365" y1="589.3672" x2="842.4365" y2="521.4727">
	<stop  offset="0.1626" style="stop-color:#FFFFFF;stop-opacity:0.5"/>
	<stop  offset="1" style="stop-color:#FFCAB8;stop-opacity:0.8"/>
</linearGradient>
<path fill="url(#SVGID_1_)" d="M884.487,555.42h-9.366c0-18.748-15.198-33.947-33.947-33.947s-33.948,15.199-33.948,33.947h-6.84
	c-8.626,0-15.618,7.6-15.618,16.975c0,9.373,6.992,16.973,15.618,16.973h84.102c8.626,0,15.618-7.6,15.618-16.973
	C900.105,563.02,893.113,555.42,884.487,555.42z"/>
<linearGradient id="SVGID_2_" gradientUnits="userSpaceOnUse" x1="199.4473" y1="576.123" x2="199.4473" y2="521.4727">
	<stop  offset="0.1626" style="stop-color:#FFFFFF;stop-opacity:0.5"/>
	<stop  offset="1" style="stop-color:#FFCAB8;stop-opacity:0.8"/>
</linearGradient>
<path fill="url(#SVGID_2_)" d="M233.296,548.799h-7.539c0-15.092-12.234-27.326-27.325-27.326s-27.325,12.234-27.325,27.326h-5.508
	c-6.942,0-12.57,6.117-12.57,13.662s5.628,13.662,12.57,13.662h67.697c6.943,0,12.571-6.117,12.571-13.662
	S240.239,548.799,233.296,548.799z"/>
<linearGradient id="SVGID_3_" gradientUnits="userSpaceOnUse" x1="496.8955" y1="758.3057" x2="496.8955" y2="563.3047">
	<stop  offset="0.1626" style="stop-color:#FFFFFF;stop-opacity:0.5"/>
	<stop  offset="1" style="stop-color:#FFCAB8;stop-opacity:0.8"/>
</linearGradient>
<path fill="url(#SVGID_3_)" d="M496.896,563.305c-206.002,0-373,87.305-373,195h746
	C869.896,650.609,702.897,563.305,496.896,563.305z"/>
<path fill="#FFD9CC" d="M292.876,566.576c0.908-2.783,1.404-5.75,1.404-8.834c0-15.717-12.74-28.457-28.456-28.457
	c-15.263,0-27.717,12.016-28.423,27.104c-11.449,1.088-20.408,10.828-20.408,22.688c0,12.586,10.092,22.791,22.541,22.791
	c6.972,0,13.203-3.203,17.338-8.23c3.941,6.627,11.122,11.063,19.328,11.063c12.448,0,22.54-10.203,22.54-22.791
	C298.74,576.004,296.519,570.623,292.876,566.576z"/>
<polygon fill="#FF671F" points="272.614,582.822 270.021,580.23 259.659,590.592 259.659,574.785 254.325,574.785 254.325,591.346 
	248.46,585.479 245.867,588.072 254.325,596.531 254.325,649.451 259.659,649.451 259.659,595.777 "/>
<path fill="#FFD9CC" d="M808.833,581.906c0.907-2.781,1.405-5.748,1.405-8.834c0-15.717-12.741-28.457-28.457-28.457
	c-15.264,0-27.717,12.016-28.424,27.105c-11.447,1.086-20.408,10.826-20.408,22.686c0,12.586,10.092,22.791,22.541,22.791
	c6.973,0,13.203-3.203,17.338-8.23c3.943,6.629,11.123,11.063,19.329,11.063c12.448,0,22.54-10.203,22.54-22.791
	C814.697,591.334,812.477,585.955,808.833,581.906z"/>
<polygon fill="#FF671F" points="788.57,598.152 785.979,595.561 775.616,605.922 775.616,590.115 770.283,590.115 770.283,606.676 
	764.417,600.811 761.824,603.402 770.283,611.861 770.283,664.781 775.616,664.781 775.616,611.107 "/>
<path fill="#FFD9CC" d="M207.764,618.635c0.476-1.457,0.735-3.01,0.735-4.625c0-8.23-6.67-14.898-14.898-14.898
	c-7.992,0-14.512,6.291-14.883,14.189c-5.993,0.57-10.685,5.67-10.685,11.879c0,6.59,5.284,11.932,11.802,11.932
	c3.65,0,6.913-1.676,9.078-4.309c2.063,3.471,5.822,5.793,10.119,5.793c6.518,0,11.802-5.344,11.802-11.934
	C210.834,623.57,209.671,620.754,207.764,618.635z"/>
<polygon fill="#FF671F" points="197.155,627.141 195.798,625.783 190.372,631.209 190.372,622.934 187.579,622.934 187.579,631.604 
	184.509,628.533 183.151,629.889 187.579,634.318 187.579,662.025 190.372,662.025 190.372,633.924 "/>
<linearGradient id="SVGID_4_" gradientUnits="userSpaceOnUse" x1="594.9404" y1="405.4492" x2="594.9404" y2="265.3184">
	<stop  offset="0" style="stop-color:#FFFFFF;stop-opacity:0.5"/>
	<stop  offset="0.6256" style="stop-color:#FFD4C6;stop-opacity:0.7409"/>
	<stop  offset="1" style="stop-color:#FFCAB8;stop-opacity:0.8"/>
</linearGradient>
<path fill="url(#SVGID_4_)" d="M681.731,335.383H662.4c0-38.695-31.369-70.064-70.065-70.064s-70.066,31.369-70.066,70.064h-14.12
	c-17.802,0-32.233,15.686-32.233,35.034s14.432,35.032,32.233,35.032h173.583c17.804,0,32.234-15.684,32.234-35.032
	S699.535,335.383,681.731,335.383z"/>
<linearGradient id="SVGID_5_" gradientUnits="userSpaceOnUse" x1="424.7168" y1="395.6602" x2="424.7168" y2="335.3838">
	<stop  offset="0.1626" style="stop-color:#FFFFFF;stop-opacity:0.5"/>
	<stop  offset="1" style="stop-color:#FFCAB8;stop-opacity:0.8"/>
</linearGradient>
<path fill="url(#SVGID_5_)" d="M462.05,365.521h-8.315c0-16.645-13.493-30.138-30.138-30.138c-16.646,0-30.139,13.493-30.139,30.138
	h-6.074c-7.657,0-13.865,6.747-13.865,15.07c0,8.322,6.208,15.068,13.865,15.068h74.666c7.658,0,13.865-6.746,13.865-15.068
	C475.915,372.269,469.708,365.521,462.05,365.521z"/>
<path fill="#FFD9CC" d="M306.755,428.311c-2.281,7.666-10.745,11.914-10.745,11.914s-4.768-8.183-2.487-15.85
	c2.28-7.666,10.744-11.914,10.744-11.914S309.034,420.644,306.755,428.311z"/>
<path fill="#FFD9CC" d="M724.817,494.654c-2.279,7.667-10.744,11.914-10.744,11.914s-4.768-8.182-2.487-15.85
	c2.28-7.666,10.745-11.914,10.745-11.914S727.099,486.988,724.817,494.654z"/>
<path fill="#FFD9CC" d="M688.227,667.551c-7.034,3.809-16.022,0.828-16.022,0.828s2.415-9.158,9.448-12.969
	c7.034-3.807,16.022-0.826,16.022-0.826S695.26,663.742,688.227,667.551z"/>
<path fill="#FFD9CC" d="M261.963,454.771c-1.412,4.746-6.653,7.377-6.653,7.377s-2.951-5.066-1.539-9.813s6.652-7.376,6.652-7.376
	S263.374,450.025,261.963,454.771z"/>
<path fill="#FA8511" d="M584.978,606.561c0,5.523-4.478,10-10,10H424.311c-5.523,0-10-4.477-10-10v-182c0-5.523,4.477-10,10-10
	h150.667c5.522,0,10,4.477,10,10V606.561z"/>
<path fill="#FFBD9C" d="M591.978,606.561c0,5.523-4.478,10-10,10H431.311c-5.523,0-10-4.477-10-10v-182c0-5.523,4.477-10,10-10
	h150.667c5.522,0,10,4.477,10,10V606.561z"/>
<path fill="#FED6BF" d="M577.311,586.311c0,5.661-4.477,10.25-10,10.25H444.644c-5.522,0-10-4.589-10-10.25v-143.5
	c0-5.662,4.478-10.25,10-10.25h122.667c5.523,0,10,4.588,10,10.25V586.311z"/>
<path fill="#FFBD9C" d="M555.311,437.228c0,5.522-4.477,10-10,10h-70.667c-5.522,0-10-4.478-10-10v-22.667c0-5.523,4.478-10,10-10
	h70.667c5.523,0,10,4.477,10,10V437.228z"/>
<path fill="#FFFFFF" d="M553.644,481.895c0,3.682-2.985,6.666-6.667,6.666h-79c-3.682,0-6.666-2.984-6.666-6.666l0,0
	c0-3.683,2.984-6.667,6.666-6.667h79C550.658,475.228,553.644,478.212,553.644,481.895L553.644,481.895z"/>
<path fill="#FFFFFF" d="M553.644,514.561c0,3.682-2.985,6.666-6.667,6.666h-79c-3.682,0-6.666-2.984-6.666-6.666l0,0
	c0-3.683,2.984-6.667,6.666-6.667h79C550.658,507.894,553.644,510.878,553.644,514.561L553.644,514.561z"/>
<path fill="#FFFFFF" d="M553.644,552.228c0,3.682-2.985,6.666-6.667,6.666h-79c-3.682,0-6.666-2.984-6.666-6.666l0,0
	c0-3.683,2.984-6.667,6.666-6.667h79C550.658,545.561,553.644,548.545,553.644,552.228L553.644,552.228z"/>
<path fill="#FC7300" d="M653.12,484.724l-12.403-5.938c-5.407-2.589-11.81-0.478-14.296,4.718l-55.23,115.38l0.005,0.015
	c-0.118,0.79-4.543,30.347,3.322,34.111c7.866,3.765,28.11-18.218,28.649-18.808l0.016-0.004l55.23-115.381
	C660.899,493.623,658.53,487.313,653.12,484.724z"/>
<path fill="#FA8511" d="M649.037,482.975l-12.403-5.938c-5.407-2.589-11.81-0.478-14.296,4.718l-55.23,115.38l0.005,0.015
	c-0.118,0.79-4.543,30.347,3.322,34.111c7.866,3.765,28.11-18.218,28.649-18.808l0.016-0.004l55.23-115.381
	C656.816,491.874,654.447,485.564,649.037,482.975z"/>
</svg>
